<mxfile host="app.diagrams.net" agent="Mozilla/5.0 (X11; Linux x86_64) AppleWebKit/537.36 (KHTML, like Gecko) Chrome/131.0.0.0 Safari/537.36" version="26.1.1">
  <diagram name="Страница — 1" id="E8A3UC12kbXpuGv7lMO0">
    <mxGraphModel dx="456" dy="263" grid="1" gridSize="10" guides="1" tooltips="1" connect="1" arrows="1" fold="1" page="1" pageScale="1" pageWidth="827" pageHeight="1169" math="0" shadow="0">
      <root>
        <mxCell id="0" />
        <mxCell id="1" parent="0" />
        <mxCell id="K8QugksHJwJesGvdx4Jt-4" value="&lt;span style=&quot;font-weight: bold;&quot;&gt;&lt;font style=&quot;font-size: 14px;&quot;&gt;prvalue&lt;/font&gt;&lt;/span&gt;&lt;br&gt;&lt;font style=&quot;font-size: 10px;&quot;&gt;(pure right)&lt;/font&gt;" style="rounded=0;whiteSpace=wrap;html=1;fontFamily=Helvetica;" parent="1" vertex="1">
          <mxGeometry x="480" y="520" width="80" height="40" as="geometry" />
        </mxCell>
        <mxCell id="K8QugksHJwJesGvdx4Jt-5" value="&lt;font&gt;&lt;span style=&quot;font-weight: bold;&quot;&gt;&lt;font style=&quot;font-size: 14px;&quot;&gt;xvalue&lt;/font&gt;&lt;/span&gt;&lt;/font&gt;&lt;div&gt;&lt;font&gt;&lt;font style=&quot;font-size: 10px;&quot;&gt;(expiring)&lt;/font&gt;&lt;/font&gt;&lt;/div&gt;" style="rounded=0;whiteSpace=wrap;html=1;fontFamily=Helvetica;" parent="1" vertex="1">
          <mxGeometry x="320" y="520" width="80" height="40" as="geometry" />
        </mxCell>
        <mxCell id="K8QugksHJwJesGvdx4Jt-6" value="&lt;font&gt;&lt;font style=&quot;font-size: 14px;&quot;&gt;&lt;span style=&quot;font-weight: bold;&quot;&gt;&lt;font style=&quot;&quot;&gt;glvalue&lt;/font&gt;&lt;/span&gt;&lt;br&gt;&lt;/font&gt;&lt;font style=&quot;font-size: 10px;&quot;&gt;(generalized)&lt;/font&gt;&lt;/font&gt;" style="rounded=0;whiteSpace=wrap;html=1;fontFamily=Helvetica;" parent="1" vertex="1">
          <mxGeometry x="240" y="440" width="80" height="40" as="geometry" />
        </mxCell>
        <mxCell id="K8QugksHJwJesGvdx4Jt-7" value="&lt;font&gt;&lt;span style=&quot;font-weight: bold;&quot;&gt;&lt;font style=&quot;font-size: 14px;&quot;&gt;rvalue&lt;/font&gt;&lt;/span&gt;&lt;br&gt;&lt;font style=&quot;font-size: 10px;&quot;&gt;(right)&lt;/font&gt;&lt;/font&gt;" style="rounded=0;whiteSpace=wrap;html=1;fontFamily=Helvetica;" parent="1" vertex="1">
          <mxGeometry x="400" y="440" width="80" height="40" as="geometry" />
        </mxCell>
        <mxCell id="K8QugksHJwJesGvdx4Jt-12" value="&lt;span style=&quot;font-weight: bold;&quot;&gt;&lt;font style=&quot;font-size: 14px;&quot;&gt;lvalue&lt;/font&gt;&lt;/span&gt;&lt;br&gt;&lt;font style=&quot;font-size: 10px;&quot;&gt;(left)&lt;/font&gt;" style="rounded=0;whiteSpace=wrap;html=1;fontFamily=Helvetica;" parent="1" vertex="1">
          <mxGeometry x="160" y="520" width="80" height="40" as="geometry" />
        </mxCell>
        <mxCell id="K8QugksHJwJesGvdx4Jt-19" value="&lt;font&gt;&lt;b style=&quot;&quot;&gt;Expression&lt;/b&gt;&lt;/font&gt;" style="rounded=0;whiteSpace=wrap;html=1;fontFamily=Helvetica;fillColor=none;" parent="1" vertex="1">
          <mxGeometry x="320" y="360" width="80" height="40" as="geometry" />
        </mxCell>
        <mxCell id="_wHXVYxqy5SocpeA8gYs-1" value="" style="endArrow=blockThin;html=1;rounded=0;entryX=0.5;entryY=0;entryDx=0;entryDy=0;endFill=0;exitX=0;exitY=0.5;exitDx=0;exitDy=0;fontFamily=Helvetica;startFill=0;startArrow=none;" parent="1" source="K8QugksHJwJesGvdx4Jt-19" target="K8QugksHJwJesGvdx4Jt-6" edge="1">
          <mxGeometry width="50" height="50" relative="1" as="geometry">
            <mxPoint x="370" y="440" as="sourcePoint" />
            <mxPoint x="450" y="470" as="targetPoint" />
            <Array as="points">
              <mxPoint x="280" y="380" />
              <mxPoint x="280" y="420" />
            </Array>
          </mxGeometry>
        </mxCell>
        <mxCell id="_wHXVYxqy5SocpeA8gYs-2" value="" style="endArrow=blockThin;html=1;rounded=0;endFill=0;exitX=0;exitY=0.5;exitDx=0;exitDy=0;fontFamily=Helvetica;startArrow=none;startFill=0;" parent="1" source="K8QugksHJwJesGvdx4Jt-6" edge="1">
          <mxGeometry width="50" height="50" relative="1" as="geometry">
            <mxPoint x="280" y="480" as="sourcePoint" />
            <mxPoint x="200" y="520" as="targetPoint" />
            <Array as="points">
              <mxPoint x="200" y="460" />
              <mxPoint x="200" y="500" />
            </Array>
          </mxGeometry>
        </mxCell>
        <mxCell id="_wHXVYxqy5SocpeA8gYs-3" value="" style="endArrow=blockThin;html=1;rounded=0;endFill=0;fontFamily=Helvetica;entryX=0.5;entryY=0;entryDx=0;entryDy=0;startArrow=oval;startFill=0;" parent="1" target="K8QugksHJwJesGvdx4Jt-5" edge="1">
          <mxGeometry width="50" height="50" relative="1" as="geometry">
            <mxPoint x="360" y="460" as="sourcePoint" />
            <mxPoint x="360" y="520" as="targetPoint" />
            <Array as="points">
              <mxPoint x="360" y="460" />
              <mxPoint x="360" y="500" />
            </Array>
          </mxGeometry>
        </mxCell>
        <mxCell id="UF4Xb1TkSq8ZHz4TrOf--1" value="" style="endArrow=blockThin;html=1;rounded=0;entryX=0.5;entryY=0;entryDx=0;entryDy=0;endFill=0;exitX=1;exitY=0.5;exitDx=0;exitDy=0;fontFamily=Helvetica;startFill=0;startArrow=none;" parent="1" source="K8QugksHJwJesGvdx4Jt-19" target="K8QugksHJwJesGvdx4Jt-7" edge="1">
          <mxGeometry width="50" height="50" relative="1" as="geometry">
            <mxPoint x="510" y="380" as="sourcePoint" />
            <mxPoint x="470" y="440" as="targetPoint" />
            <Array as="points">
              <mxPoint x="440" y="380" />
              <mxPoint x="440" y="420" />
            </Array>
          </mxGeometry>
        </mxCell>
        <mxCell id="UF4Xb1TkSq8ZHz4TrOf--2" value="" style="endArrow=blockThin;html=1;rounded=0;endFill=0;exitX=1;exitY=0.5;exitDx=0;exitDy=0;fontFamily=Helvetica;entryX=0.5;entryY=0;entryDx=0;entryDy=0;startFill=0;startArrow=none;" parent="1" source="K8QugksHJwJesGvdx4Jt-7" edge="1">
          <mxGeometry width="50" height="50" relative="1" as="geometry">
            <mxPoint x="560" y="460" as="sourcePoint" />
            <mxPoint x="520" y="520" as="targetPoint" />
            <Array as="points">
              <mxPoint x="520" y="460" />
              <mxPoint x="520" y="500" />
            </Array>
          </mxGeometry>
        </mxCell>
        <mxCell id="UF4Xb1TkSq8ZHz4TrOf--4" value="" style="endArrow=oval;html=1;rounded=0;exitX=1;exitY=0.5;exitDx=0;exitDy=0;endFill=0;startFill=0;startArrow=none;" parent="1" source="K8QugksHJwJesGvdx4Jt-6" edge="1">
          <mxGeometry width="50" height="50" relative="1" as="geometry">
            <mxPoint x="340" y="470" as="sourcePoint" />
            <mxPoint x="360" y="460" as="targetPoint" />
          </mxGeometry>
        </mxCell>
        <mxCell id="s8YvskSuhe-KTERLdsMD-1" value="" style="endArrow=none;html=1;rounded=0;entryX=0;entryY=0.5;entryDx=0;entryDy=0;startArrow=oval;startFill=0;endFill=0;" parent="1" target="K8QugksHJwJesGvdx4Jt-7" edge="1">
          <mxGeometry width="50" height="50" relative="1" as="geometry">
            <mxPoint x="360" y="460" as="sourcePoint" />
            <mxPoint x="370" y="440" as="targetPoint" />
          </mxGeometry>
        </mxCell>
      </root>
    </mxGraphModel>
  </diagram>
</mxfile>
